<?xml version="1.0" encoding="UTF-8"?> <svg xmlns="http://www.w3.org/2000/svg" width="55" height="21" viewBox="0 0 55 21" fill="none"><path d="M54.203 1.00601C49.9923 0.686153 45.7547 0.678236 41.5487 1.06935C38.0045 1.39871 34.484 2.01151 31.0503 2.95525C28.1458 3.75332 25.306 4.78573 22.5799 6.06992C20.296 7.14509 18.0943 8.39602 16.0095 9.81956C14.3258 10.9707 12.7164 12.2359 11.2112 13.6135C10.0267 14.6966 8.89738 15.851 7.85496 17.0718C6.96259 18.1153 6.2629 19.3995 5.04201 20.1073C3.30623 21.1144 0.093693 20.8262 0.00208672 18.3053C-0.0658283 16.4083 1.53728 15.0513 2.87663 13.9809C4.04698 13.0466 5.25997 12.1662 6.5014 11.3302C8.37459 10.0682 10.3141 8.9059 12.3042 7.84181C14.8234 6.49429 17.4262 5.30511 20.0939 4.28378C23.2116 3.09143 26.4179 2.13027 29.6794 1.42563C33.3578 0.630732 37.1074 0.160444 40.868 0.0353507C45.0834 -0.107161 49.31 0.182613 53.4701 0.879335C53.7102 0.918922 53.9582 0.987011 54.1998 1.00601H54.203Z" fill="#295581"></path></svg> 