<svg width="62" height="62" viewBox="0 0 62 62" fill="none" xmlns="http://www.w3.org/2000/svg">
<path d="M30.9998 5.16674L32.3698 3.79672C31.6131 3.04009 30.3865 3.04009 29.6299 3.79672L30.9998 5.16674ZM56.8332 31.0001L58.2031 32.37C58.9598 31.6134 58.9598 30.3868 58.2031 29.6301L56.8332 31.0001ZM49.0832 38.7501L47.7132 37.3801L47.1457 37.9474V38.7501H49.0832ZM49.0832 49.0834V51.0209C50.1532 51.0209 51.0207 50.1534 51.0207 49.0834H49.0832ZM38.7498 49.0834V47.1459H37.9472L37.3799 47.7135L38.7498 49.0834ZM30.9998 56.8334L29.6299 58.2034C30.3865 58.96 31.6131 58.96 32.3698 58.2034L30.9998 56.8334ZM23.2498 49.0834L24.6198 47.7135L24.0524 47.1459H23.2498V49.0834ZM12.9165 49.0834H10.979C10.979 50.1534 11.8465 51.0209 12.9165 51.0209V49.0834ZM12.9165 38.7501H14.854V37.9474L14.2865 37.3801L12.9165 38.7501ZM5.1665 31.0001L3.79648 29.6301C3.03985 30.3868 3.03985 31.6134 3.79648 32.37L5.1665 31.0001ZM12.9165 23.2501L14.2865 24.6201L14.854 24.0526V23.2501H12.9165ZM12.9165 12.9167V10.9792C11.8465 10.9792 10.979 11.8467 10.979 12.9167H12.9165ZM23.2498 12.9167V14.8542H24.0524L24.6198 14.2868L23.2498 12.9167ZM29.6299 6.53676L37.3799 14.2868L40.1198 11.5467L32.3698 3.79672L29.6299 6.53676ZM47.7132 24.6201L55.4632 32.37L58.2031 29.6301L50.4531 21.8801L47.7132 24.6201ZM55.4632 29.6301L47.7132 37.3801L50.4531 40.12L58.2031 32.37L55.4632 29.6301ZM47.1457 38.7501V49.0834H51.0207V38.7501H47.1457ZM49.0832 47.1459H38.7498V51.0209H49.0832V47.1459ZM37.3799 47.7135L29.6299 55.4635L32.3698 58.2034L40.1198 50.4534L37.3799 47.7135ZM32.3698 55.4635L24.6198 47.7135L21.8798 50.4534L29.6299 58.2034L32.3698 55.4635ZM23.2498 47.1459H12.9165V51.0209H23.2498V47.1459ZM14.854 49.0834V38.7501H10.979V49.0834H14.854ZM14.2865 37.3801L6.53652 29.6301L3.79648 32.37L11.5465 40.12L14.2865 37.3801ZM6.53652 32.37L14.2865 24.6201L11.5465 21.8801L3.79648 29.6301L6.53652 32.37ZM14.854 23.2501V12.9167H10.979V23.2501H14.854ZM12.9165 14.8542H23.2498V10.9792H12.9165V14.8542ZM24.6198 14.2868L32.3698 6.53676L29.6299 3.79672L21.8798 11.5467L24.6198 14.2868Z" fill="url(#paint0_linear_20_2)"/>
<path d="M21.9585 24.5417L31.0002 33.5833L54.2507 7.75" stroke="url(#paint1_linear_20_2)" stroke-width="1.5"/>
<defs>
<linearGradient id="paint0_linear_20_2" x1="30.9998" y1="3.22925" x2="30.9998" y2="58.7709" gradientUnits="userSpaceOnUse">
<stop stop-color="#024A7C"/>
<stop offset="1" stop-color="#0E334D"/>
</linearGradient>
<linearGradient id="paint1_linear_20_2" x1="38.1046" y1="7.75" x2="38.1046" y2="33.5833" gradientUnits="userSpaceOnUse">
<stop stop-color="#014A7E"/>
<stop offset="1" stop-color="#0E344F"/>
</linearGradient>
</defs>
</svg>
