<svg width="695" height="416" viewBox="0 0 695 416" fill="none" xmlns="http://www.w3.org/2000/svg">
<path d="M19.5625 132.488H45.8425V257.178H19.5625V132.488Z" fill="white"/>
<path d="M108.393 206.748C108.393 196.848 107.413 190.598 105.463 188.008C103.503 185.418 100.372 184.118 96.0525 184.118C91.4825 184.118 87.7525 185.668 84.8525 188.768C82.6125 191.158 81.2426 195.528 80.7426 201.868V257.178H54.5326V166.818H80.7426V173.218C80.7426 173.728 80.6425 174.108 80.4425 174.358L76.9425 181.598C78.1125 179.768 79.5026 177.988 81.1326 176.268C87.2226 169.618 95.0025 166.288 104.443 166.288H106.123C117.093 166.798 124.563 170.728 128.523 178.098C128.983 178.858 129.383 179.668 129.743 180.538C130.603 179.578 131.543 178.608 132.562 177.638C140.182 170.068 148.813 166.288 158.463 166.288H159.913C170.883 166.798 178.313 170.718 182.193 178.058C186.083 185.398 188.023 194.248 188.023 204.608V257.178H161.893V206.748C161.893 196.848 160.963 190.598 159.113 188.008C157.263 185.418 154.173 184.118 149.853 184.118C145.283 184.118 141.553 185.638 138.653 188.688C136.313 191.228 134.943 195.978 134.543 202.938V257.178H108.413V206.748H108.393Z" fill="white"/>
<path d="M221.603 309.018H195.393V166.528H221.603V172.238C221.603 172.748 221.502 173.098 221.302 173.308L217.033 179.858C218.863 177.518 221.322 175.288 224.422 173.158C231.432 168.338 239.913 165.918 249.873 165.918H251.703C263.083 166.328 271.513 170.538 276.993 178.568C282.483 186.598 285.223 197.688 285.223 211.858C285.223 226.028 282.483 237.068 276.993 244.958C271.503 252.858 263.073 257.058 251.703 257.568H249.643C239.843 257.568 231.432 255.158 224.422 250.328C221.272 248.148 218.813 245.888 217.033 243.548L221.302 250.408C221.402 250.558 221.483 250.738 221.533 250.938C221.583 251.138 221.613 251.318 221.613 251.468V309.008L221.603 309.018ZM227.393 235.858C231.253 238.348 235.823 239.588 241.103 239.588C246.793 239.588 251.163 238.158 254.203 235.288C257.253 232.418 258.773 224.588 258.773 211.788C258.773 198.988 257.253 190.998 254.203 188.128C251.153 185.258 246.783 183.828 241.103 183.828C235.823 183.828 231.253 185.078 227.393 187.558C223.833 189.898 221.903 194.318 221.603 200.818V222.528C221.903 229.078 223.833 233.528 227.393 235.858Z" fill="white"/>
<path d="M292.982 145.608H319.192V257.188H292.982V145.608Z" fill="white"/>
<path d="M393.703 242.408C391.163 246.018 389.003 248.708 387.223 250.488C385.443 252.268 383.313 253.728 380.823 254.868C378.333 256.008 375.453 256.848 372.173 257.378C368.893 257.908 365.283 258.178 361.313 258.178C358.263 258.178 355.043 257.928 351.633 257.418C348.233 256.908 345.033 256.058 342.033 254.868C339.033 253.678 336.353 251.988 333.993 249.798C331.633 247.618 329.793 244.988 328.473 241.908C327.153 238.838 326.493 234.908 326.493 230.138C326.493 225.368 327.143 221.888 328.433 219.088C329.733 216.298 331.543 213.848 333.883 211.738C336.223 209.628 338.973 207.938 342.153 206.668C345.323 205.398 348.793 204.458 352.553 203.848C356.313 203.238 359.993 202.938 363.603 202.938H389.813V199.588C389.813 195.168 389.023 191.648 387.453 189.038C385.883 186.418 383.643 184.758 380.753 184.048C377.853 183.338 374.503 182.978 370.693 182.978C367.193 182.978 364.143 183.258 361.553 183.818C358.963 184.378 356.843 185.828 355.193 188.158C353.543 190.498 352.333 193.868 351.573 198.288H326.813C327.223 190.818 329.043 184.968 332.303 180.728C335.553 176.488 339.323 173.378 343.613 171.398C347.903 169.418 352.183 168.018 356.453 167.208C360.723 166.398 365.773 165.988 371.613 165.988C380.143 165.988 387.793 167.108 394.543 169.338C401.293 171.578 406.593 175.208 410.423 180.228C414.253 185.258 416.173 192.168 416.173 200.948V257.168H390.423V252.598C390.423 251.738 390.563 250.838 390.843 249.898C391.123 248.958 391.543 248.158 392.103 247.498L393.703 242.398V242.408ZM367.493 241.268C369.883 241.268 372.283 241.088 374.693 240.738C377.103 240.388 379.443 239.788 381.703 238.948C383.963 238.108 385.803 237.068 387.223 235.828C388.643 234.588 389.483 233.178 389.733 231.598L390.343 217.428H366.803C364.923 217.428 363.143 217.568 361.473 217.848C359.793 218.128 358.333 218.688 357.093 219.528C355.843 220.368 354.873 221.578 354.163 223.148C353.453 224.718 353.093 226.828 353.093 229.468C353.093 232.108 353.503 234.158 354.313 235.758C355.123 237.358 356.233 238.568 357.623 239.378C359.023 240.188 360.573 240.708 362.273 240.938C363.973 241.168 365.713 241.278 367.493 241.278V241.268Z" fill="white"/>
<path d="M559.023 257.948C546.983 257.948 538.793 256.008 534.453 252.118C530.113 248.228 527.943 241.848 527.943 232.958V186.108H514.613V166.838H518.113C520.243 166.838 522.173 166.428 523.903 165.618C525.633 164.808 527.103 163.678 528.323 162.228C529.543 160.778 530.483 159.028 531.143 156.968C531.803 154.908 532.133 152.638 532.133 150.148V146.258H558.413V150.148C558.413 159.898 554.403 166.578 546.073 166.828H545.922H584.853V186.098H554.153V228.688C554.153 232.598 555.393 235.218 557.883 236.538C560.373 237.858 563.573 238.518 567.483 238.518C571.753 238.518 577.562 237.858 584.932 236.538V255.888C575.132 257.258 566.493 257.948 559.033 257.948H559.023Z" fill="white"/>
<path d="M637.413 241.188C641.683 241.188 644.943 240.858 647.203 240.198C649.463 239.538 651.433 237.878 653.103 235.208C654.773 232.538 656.023 229.378 656.833 225.718H682.963C682.153 234.198 679.423 240.738 674.773 245.338C670.123 249.938 664.853 253.228 658.963 255.208C653.123 257.138 645.933 258.108 637.403 258.108C622.823 258.108 611.453 254.278 603.273 246.608C595.043 238.938 590.933 227.408 590.933 212.018C590.933 196.628 595.013 184.728 603.163 177.238C611.313 169.748 622.573 165.998 636.953 165.998C651.333 165.998 663.183 169.808 671.003 177.428C678.823 185.048 682.733 196.548 682.733 211.938L682.653 218.868L616.453 218.948C616.963 228.088 618.563 233.928 621.253 236.468C624.603 239.618 629.993 241.188 637.403 241.188H637.413ZM656.683 204.468C656.583 195.328 654.983 189.438 651.883 186.798C648.783 184.158 643.833 182.838 637.023 182.838C629.813 182.838 624.553 184.338 621.253 187.328C618.613 189.718 617.033 195.428 616.533 204.468H656.683Z" fill="white"/>
<path d="M482.822 347.638V325.928C482.822 325.818 482.812 325.708 482.802 325.598V347.828C482.812 347.758 482.822 347.698 482.822 347.628V347.638Z" fill="white"/>
<path d="M508.913 262.388L508.953 381.998H509.033L508.913 262.388Z" fill="white"/>
<path d="M482.822 376.208V381.998H508.952L508.912 262.388L508.892 209.188C508.892 196.338 506.652 186.178 502.192 178.718C497.722 171.248 490.152 167.038 479.492 166.068C478.272 165.968 477.082 165.918 475.912 165.918C465.292 165.918 456.382 169.808 449.172 177.578C447.902 178.948 446.732 180.298 445.672 181.618L449.632 174.308C449.832 174.108 449.932 173.748 449.932 173.238V166.838H423.722V257.198H449.932V198.158C450.842 194.298 452.392 191.328 454.582 189.248C458.292 185.848 462.782 184.148 468.062 184.148C473.042 184.148 476.732 185.458 479.142 188.068C481.552 190.688 482.762 197.858 482.762 209.588L482.782 262.408L482.822 296.998C482.822 297.408 482.922 297.758 483.122 298.068L487.462 304.928C486.202 303.318 484.642 301.768 482.782 300.258C481.942 299.568 481.042 298.888 480.072 298.228C473.162 293.348 464.812 290.918 455.012 290.918C454.252 290.918 453.492 290.948 452.722 290.998C441.392 291.508 432.972 295.698 427.462 303.568C421.952 311.438 419.192 322.458 419.192 336.628C419.192 350.798 421.942 361.908 427.462 369.958C432.972 378.008 441.392 382.238 452.722 382.638H454.242C464.352 382.638 472.962 380.198 480.072 375.328C481.052 374.668 481.962 373.998 482.812 373.308C484.642 371.828 486.172 370.298 487.382 368.698L483.112 375.248C482.912 375.548 482.812 375.888 482.812 376.238L482.822 376.208ZM482.812 347.838C482.482 354.228 480.552 358.588 477.032 360.898C473.222 363.438 468.672 364.708 463.392 364.708C457.702 364.708 453.322 363.278 450.252 360.408C447.182 357.538 445.642 349.658 445.642 336.748C445.642 323.838 447.182 316.118 450.252 313.248C453.322 310.378 457.702 308.948 463.392 308.948C468.672 308.948 473.222 310.198 477.032 312.678C480.522 314.928 482.452 319.238 482.802 325.608C482.802 325.718 482.812 347.778 482.802 347.838H482.812Z" fill="white"/>
<path d="M582.013 367.218C579.473 370.828 577.313 373.518 575.533 375.298C573.753 377.078 571.623 378.538 569.133 379.678C566.643 380.818 563.763 381.658 560.483 382.188C557.203 382.718 553.593 382.988 549.623 382.988C546.573 382.988 543.353 382.738 539.943 382.228C536.543 381.718 533.343 380.868 530.343 379.678C527.343 378.488 524.662 376.798 522.302 374.608C519.942 372.428 518.103 369.798 516.783 366.718C515.463 363.648 514.802 359.718 514.802 354.948C514.802 350.178 515.453 346.698 516.743 343.898C518.043 341.108 519.853 338.658 522.193 336.548C524.533 334.438 527.283 332.748 530.463 331.478C533.633 330.208 537.103 329.268 540.863 328.658C544.623 328.048 548.303 327.748 551.913 327.748H578.123V324.398C578.123 319.978 577.333 316.458 575.763 313.848C574.193 311.228 571.953 309.568 569.062 308.858C566.162 308.148 562.813 307.788 559.003 307.788C555.503 307.788 552.453 308.068 549.863 308.628C547.273 309.188 545.153 310.638 543.503 312.968C541.853 315.308 540.643 318.678 539.883 323.098H515.123C515.533 315.628 517.353 309.778 520.613 305.538C523.863 301.298 527.632 298.188 531.922 296.208C536.212 294.228 540.493 292.828 544.763 292.018C549.033 291.208 554.082 290.798 559.922 290.798C568.452 290.798 576.103 291.918 582.853 294.148C589.603 296.388 594.903 300.018 598.733 305.038C602.563 310.068 604.483 316.978 604.483 325.758V381.978H578.733V377.408C578.733 376.548 578.873 375.648 579.153 374.708C579.433 373.768 579.853 372.968 580.413 372.308L582.013 367.208V367.218ZM555.802 366.078C558.192 366.078 560.593 365.898 563.003 365.548C565.413 365.198 567.753 364.598 570.013 363.758C572.273 362.918 574.113 361.878 575.533 360.638C576.953 359.398 577.793 357.988 578.043 356.408L578.653 342.238H555.113C553.233 342.238 551.453 342.378 549.783 342.658C548.103 342.938 546.643 343.498 545.403 344.338C544.153 345.178 543.183 346.388 542.473 347.958C541.763 349.528 541.403 351.638 541.403 354.278C541.403 356.918 541.813 358.968 542.623 360.568C543.433 362.168 544.542 363.378 545.932 364.188C547.332 364.998 548.883 365.518 550.583 365.748C552.283 365.978 554.022 366.088 555.802 366.088V366.078Z" fill="white"/>
<path d="M649.513 363.338L666.733 291.648H694.163L668.943 382.008C663.963 396.938 657.653 406.298 650.013 410.078C642.373 413.858 629.053 415.758 610.053 415.758V396.708C620.663 396.708 628.563 395.898 633.743 394.268C638.873 392.638 642.503 388.558 644.633 381.998H633.053L607.453 291.638H634.883L649.283 350.148C649.383 350.658 649.463 351.218 649.513 351.828C649.563 352.438 649.563 352.998 649.513 353.508V363.338Z" fill="white"/>
<path d="M46.1827 70.558C45.7127 69.908 45.1828 69.2682 44.8728 68.5082C31.9128 36.9682 54.7628 -1.55176 53.7228 0.0482366C31.1928 34.8282 23.2728 64.3782 21.0428 68.7782C19.3828 72.0682 17.1928 73.578 15.5928 76.328C13.6428 79.688 12.6328 83.5481 12.6328 87.4281C12.6328 99.2581 21.7928 108.848 33.0928 108.848C44.3928 108.848 53.5527 99.2581 53.5527 87.4281C53.5527 84.0981 52.8128 80.7782 51.3628 77.7782C50.0528 75.0682 47.9327 72.9582 46.1927 70.5482L46.1827 70.558Z" fill="white"/>
<path d="M6.11265 69.9683C-5.26735 87.8183 7.98263 113.588 29.7126 116.228C43.2826 117.818 56.1227 108.618 60.5227 95.8882C63.1627 88.2082 64.4326 80.1382 60.4626 72.1782C63.9026 79.0682 66.0926 87.1581 64.7226 94.8481C62.0826 110.848 47.6726 123.148 31.3326 122.328C5.50262 121.288 -8.96734 90.708 6.12266 69.978L6.11265 69.9683Z" fill="white"/>
</svg>
