<svg width="1000" height="56" viewBox="0 0 1000 56" fill="none" xmlns="http://www.w3.org/2000/svg">
<path opacity="0.33" d="M527 18.3108C730.9 -31.1365 790.1 37.3506 847.3 18.3108C934 -10.6968 1000 22.5668 1000 22.5668V55.9984L0 55.9984V22.5668C0 22.5668 62.1 7.95096 94.9 6.15898C127.7 4.31101 157.7 13.0469 170.7 18.5348C194 28.2227 254.7 51.1264 305.1 53.3664C355.5 55.6064 507.6 22.9588 527 18.3108Z" fill="#F3F3F3"/>
<path opacity="0.66" d="M266 18.3108C311.5 18.3108 343.2 31.3027 395.1 40.2066C423.7 45.0785 545.4 45.8625 649.1 18.3108C752.8 -9.24082 740.8 37.5746 798.3 18.3108C884.3 -10.2488 1000 33.7106 1000 33.7106V55.9984L0 55.9984V35.5586C0 35.5586 28.2 45.9185 92.1 45.9185C189.8 45.8625 224.3 18.3108 266 18.3108Z" fill="#F3F3F3"/>
<path d="M233.9 39.8146C433.9 72.0141 499.9 3.13502 629 28.8947C758 54.9904 758 52.9744 815.2 44.4625C872 35.9506 867.7 30.8547 910.1 26.5987C971.4 20.3268 1000 55.9984 1000 55.9984L0 55.9984C0 55.9984 9.89998 33.0946 83.6 29.0627C157.3 25.0307 170.4 29.6787 233.9 39.8146Z" fill="#E6EAED"/>
</svg>
