<svg width="1000" height="100" viewBox="0 0 1000 100" fill="none" xmlns="http://www.w3.org/2000/svg">
<path opacity="0.33" d="M527 32.6983C730.9 -55.6017 790.1 66.6983 847.3 32.6983C934 -19.1017 1000 40.2983 1000 40.2983V99.9983L0 99.9983V40.2983C0 40.2983 62.1 14.1983 94.9 10.9983C127.7 7.69832 157.7 23.2983 170.7 33.0983C194 50.3983 254.7 91.2983 305.1 95.2983C355.5 99.2983 507.6 40.9983 527 32.6983Z" fill="#F3F3F3"/>
<path opacity="0.66" d="M266 32.6983C311.5 32.6983 343.2 55.8983 395.1 71.7983C423.7 80.4983 545.4 81.8983 649.1 32.6983C752.8 -16.5017 740.8 67.0983 798.3 32.6983C884.3 -18.3017 1000 60.1983 1000 60.1983V99.9983L0 99.9983V63.4983C0 63.4983 28.2 81.9983 92.1 81.9983C189.8 81.8983 224.3 32.6983 266 32.6983Z" fill="#F3F3F3"/>
<path d="M233.9 71.0983C433.9 128.598 499.9 5.59832 629 51.5983C758 98.1983 758 94.5983 815.2 79.3983C872 64.1983 867.7 55.0983 910.1 47.4983C971.4 36.2983 1000 99.9983 1000 99.9983L0 99.9983C0 99.9983 9.89998 59.0983 83.6 51.8983C157.3 44.6983 170.4 52.9983 233.9 71.0983Z" fill="#E6EAED"/>
</svg>
